<svg xmlns="http://www.w3.org/2000/svg" viewBox="0 0 292.54 45.01">
  <defs>
    <style>
      .cls-1 {
        fill: #fff;
      }
    </style>
  </defs>
  <title>Asset 3</title>
  <g id="Layer_2" data-name="Layer 2">
    <g id="Layer_1-2" data-name="Layer 1">
      <g>
        <g>
          <path class="cls-1" d="M281.09,3.57l2.76,7.59h-5.68Zm10.46,13.19a2.1019,2.1019,0,0,1-1.34-.9,18.3077,18.3077,0,0,1-1.33-2.75c-.08-.2-.17-.42-.25-.64-.13-.33-.27-.68-.41-1.04l-1.81-4.95-.15-.41-.88-2.4L284.18.4H281.6l-.93,2.37-1.42,3.62-2.84,7.25a9.0651,9.0651,0,0,1-1.05,2.04,2.9292,2.9292,0,0,1-1.05.93,3.5975,3.5975,0,0,1-1.22.34v.45h5.76v-.45a5.3653,5.3653,0,0,1-1.11-.23,1.45,1.45,0,0,1-.94-1.38,4.4574,4.4574,0,0,1,.43-1.63l.71-1.9h6.16l.61,1.67a5.1977,5.1977,0,0,1,.51,1.91,1.3379,1.3379,0,0,1-.94,1.33,5.3144,5.3144,0,0,1-1.05.23v.45h9.31v-.42a6.5752,6.5752,0,0,1-.99-.22"/>
          <path class="cls-1" d="M63.89.93a1.7036,1.7036,0,0,0-1.23.94,7.1913,7.1913,0,0,0-.35,2.94V17.47H61.26L50.35,3.49v9.38a6.0076,6.0076,0,0,0,.4,2.85,1.8252,1.8252,0,0,0,1.26,1.03,4.5066,4.5066,0,0,0,.95.15v.42H46.92V16.9a5.8071,5.8071,0,0,0,.98-.15,1.7358,1.7358,0,0,0,1.23-1.03,5.7609,5.7609,0,0,0,.46-2.85V5.82a7.492,7.492,0,0,0-.55-3.48A3.5992,3.5992,0,0,0,47.26.94a4.035,4.035,0,0,0-.92-.18V.34h6.67l8.53,11.32h.02V4.81a7.3534,7.3534,0,0,0-.42-2.94A1.8793,1.8793,0,0,0,59.85.93,4.5631,4.5631,0,0,0,58.9.77V.34h5.97V.77a5.4211,5.4211,0,0,0-.98.16"/>
          <path class="cls-1" d="M112.36.93a2.0227,2.0227,0,0,0-1.26,1.06,7.236,7.236,0,0,0-.42,3.1v6.55a7.2129,7.2129,0,0,1-.86,3.72c-.71,1.17-2.25,2.29-5.02,2.32h-.39c-2.99,0-5.31-.75-6.37-2.97a10.1445,10.1445,0,0,1-.63-3.7V5.57a12.26,12.26,0,0,0-.32-3.44A1.7107,1.7107,0,0,0,95.77.92c-.32-.08-.66-.13-.86-.16V.33h8.99V.76a8.3372,8.3372,0,0,0-.83.16,1.7472,1.7472,0,0,0-1.35,1.21,13.4854,13.4854,0,0,0-.31,3.44v6.55a7.2417,7.2417,0,0,0,.37,2.51,3.3639,3.3639,0,0,0,3.56,2.22,4.2733,4.2733,0,0,0,3.99-1.99,7.1411,7.1411,0,0,0,.6-3.12V5.09a7.4982,7.4982,0,0,0-.4-3.1A1.9671,1.9671,0,0,0,108.27.93a4.8848,4.8848,0,0,0-.98-.16V.34h6.06V.77a4.6451,4.6451,0,0,0-.99.16"/>
          <path class="cls-1" d="M157.21,4.4l-2.9,5.43v2.24a11.6294,11.6294,0,0,0,.34,3.46,1.6346,1.6346,0,0,0,1.29,1.21,7.1566,7.1566,0,0,0,.86.15v.42h-8.99v-.42c.23-.03.55-.08.89-.15a1.7275,1.7275,0,0,0,1.32-1.21,12.5648,12.5648,0,0,0,.31-3.46v-1.6l-4.11-7.23c-.97-1.76-1.75-2.29-3.3-2.47V.34h9.22V.77a6.1971,6.1971,0,0,0-1.11.21c-1.18.41-.95,1.28-.32,2.52l3.07,5.63h.09l2.64-4.91A5.72,5.72,0,0,0,157.37,2a1.1062,1.1062,0,0,0-.85-1.06,4.7272,4.7272,0,0,0-.96-.17V.34h5.91V.77c-1.79.26-2.8.94-4.26,3.63"/>
          <path class="cls-1" d="M191.54.71a3.5275,3.5275,0,0,0-1.29.23,1.4011,1.4011,0,0,0-.72,1.01,8.609,8.609,0,0,0-.12,1.84V8.78a6.1634,6.1634,0,0,0,1.55.21c1.84,0,2.47-.41,3.02-1.19a5.99,5.99,0,0,0,.75-3.02c0-2.52-.86-4.07-3.19-4.07m5.2,7.94a13.2653,13.2653,0,0,1-5.77.96,11.0369,11.0369,0,0,1-1.55-.13v1.41a16.9538,16.9538,0,0,0,.43,4.65,1.8717,1.8717,0,0,0,1.32,1.14,8,8,0,0,0,1.06.16v.42h-9.42v-.45a6.5963,6.5963,0,0,0,.89-.13,1.9128,1.9128,0,0,0,1.29-1.16,16.57,16.57,0,0,0,.46-4.62V6.57a16.5484,16.5484,0,0,0-.46-4.6A1.9555,1.9555,0,0,0,183.7.83a6.5963,6.5963,0,0,0-.89-.13V.28h9.3C196.42.28,199,1.7,199,4.75a4.4645,4.4645,0,0,1-2.26,3.9"/>
          <path class="cls-1" d="M221.2,17.25H206.01v-.42a4.8547,4.8547,0,0,0,.92-.13,1.8131,1.8131,0,0,0,1.29-1.14,15.5932,15.5932,0,0,0,.43-4.6V6.58a16.4682,16.4682,0,0,0-.43-4.6A1.8292,1.8292,0,0,0,206.9.84a3.964,3.964,0,0,0-.86-.15V.27h9.22V.69a6.4539,6.4539,0,0,0-.86.15,1.8528,1.8528,0,0,0-1.35,1.14,16.4682,16.4682,0,0,0-.43,4.6v5.81a10.6467,10.6467,0,0,0,.26,2.89,1.7475,1.7475,0,0,0,.79,1.04,3.2909,3.2909,0,0,0,1.7.41h.67a3.5528,3.5528,0,0,0,2.78-1.24,15.5874,15.5874,0,0,0,2.4-4.06h.42Z"/>
          <path class="cls-1" d="M267.29.53,257.26,16.79h1.8c2.43,0,3.92-.47,5.05-1.37a10.9606,10.9606,0,0,0,3.01-3.64h.42l-1.15,5.61H252.26v-.13l10.39-16.2h-2.38a8.6386,8.6386,0,0,0-4.62,1.19,10.44,10.44,0,0,0-2.71,3.31h-.42L253.61.42h13.67V.53Z"/>
          <path class="cls-1" d="M128.03,8.49h-1.35V3.29a3.9965,3.9965,0,0,1,.29-1.94,1.6874,1.6874,0,0,1,1.52-.59h.17c2.3,0,2.99,1.55,2.99,3.88a5.3467,5.3467,0,0,1-.72,2.91c-.48.66-1.2.94-2.9.94m10.11,8.63a3.36,3.36,0,0,1-1-.37c-.63-.49-1.12-1.68-1.52-3.88a4.6154,4.6154,0,0,0-1.95-3.18,6.6683,6.6683,0,0,0-2.53-.75V8.86a6.47,6.47,0,0,0,2.53-.65,3.8436,3.8436,0,0,0,2.41-3.59c0-2.94-2.9-4.29-6.66-4.29H120.2V.76a7.7687,7.7687,0,0,1,.83.15,1.7549,1.7549,0,0,1,1.35,1.21,13.7131,13.7131,0,0,1,.32,3.44v6.49a12.46,12.46,0,0,1-.32,3.46,1.7239,1.7239,0,0,1-1.32,1.24,5,5,0,0,1-.86.13v.42h9.16v-.42a7.1708,7.1708,0,0,1-1.01-.13,1.7679,1.7679,0,0,1-1.32-1.24,12.3238,12.3238,0,0,1-.35-3.46V9.11h.98c1.32,0,2.12.08,2.73.8a5.6577,5.6577,0,0,1,1.03,2.94c.11,1.04.22,2.98,1.22,4.24.06.08.11.15.16.21.03.03.07.06.1.09.02.02.03.04.04.05.03.03.06.04.09.07,1.6,1.32,4.85.42,5.51-.21v-.13Z"/>
          <path class="cls-1" d="M15.91,11.69c-1.04,3.66-3.82,5.01-5.71,5.01a5.784,5.784,0,0,1-3.13-.8c-1.66-1.24-2.79-3.13-2.79-7.08,0-3.46.66-5.63,1.69-6.85A4.2884,4.2884,0,0,1,9.33.44c3.45,0,5.26,2.43,6.26,6.23h.42V.62h-.33l-.02.03a1.1437,1.1437,0,0,1-1.65.46.0367.0367,0,0,0-.03-.01A9.77,9.77,0,0,0,9.3,0C4.76,0,0,2.48,0,8.81s4.59,8.86,9.1,8.86h.24a7.1538,7.1538,0,0,0,7.08-5.87Z"/>
          <path class="cls-1" d="M87.64.38H72.28l-.75,5.48h.42a11.6815,11.6815,0,0,1,2.18-3.54A4.1273,4.1273,0,0,1,77.17.91h.82V12.14a12.0309,12.0309,0,0,1-.35,3.44,1.83,1.83,0,0,1-1.35,1.27,3.6041,3.6041,0,0,1-.86.1v.42h9.05v-.42a4.131,4.131,0,0,1-.86-.1,1.8462,1.8462,0,0,1-1.35-1.27,11.9869,11.9869,0,0,1-.35-3.44V.91h.82a4.0972,4.0972,0,0,1,3.04,1.41,11.8019,11.8019,0,0,1,2.18,3.54h.42Z"/>
          <path class="cls-1" d="M38.54,17.32H23.52V16.9a3.7667,3.7667,0,0,0,.86-.16,1.7644,1.7644,0,0,0,1.35-1.21,13.7852,13.7852,0,0,0,.32-3.46V5.6a13.6311,13.6311,0,0,0-.32-3.46A1.7472,1.7472,0,0,0,24.38.93a6.6647,6.6647,0,0,0-.86-.16V.35H37.88l.6,5.32h-.41a9.3859,9.3859,0,0,0-1.93-3.65A4.5485,4.5485,0,0,0,33.17.86h-.6a2.3562,2.3562,0,0,0-1.61.44c-.92.67-1,2.08-1,3.13v3.7h1.06c1.64,0,2.13-.08,2.7-.57a4.2663,4.2663,0,0,0,1.16-2.64h.42v7.16h-.42a3.86,3.86,0,0,0-1.04-2.5,4.1935,4.1935,0,0,0-2.82-.7H29.96v4.18c0,1.06-.03,2.55.89,3.22a3.1641,3.1641,0,0,0,1.92.54h.57a3.7553,3.7553,0,0,0,2.93-1.24,11.5407,11.5407,0,0,0,2.26-4.12h.42Z"/>
          <path class="cls-1" d="M234.96,3.57l2.76,7.59h-5.68Zm10.46,13.19a2.1019,2.1019,0,0,1-1.34-.9,18.3077,18.3077,0,0,1-1.33-2.75c-.08-.2-.17-.42-.25-.64-.13-.33-.27-.68-.41-1.04l-1.82-4.95-.15-.41-.88-2.4L238.04.4h-2.58l-.93,2.37-1.42,3.62-2.84,7.25a9.0651,9.0651,0,0,1-1.05,2.04,2.93,2.93,0,0,1-1.05.93,3.5963,3.5963,0,0,1-1.22.34v.45h5.76v-.45a5.2361,5.2361,0,0,1-1.11-.23,1.45,1.45,0,0,1-.94-1.38,4.4574,4.4574,0,0,1,.43-1.63l.71-1.9h6.16l.61,1.67a5.1977,5.1977,0,0,1,.51,1.91,1.3378,1.3378,0,0,1-.94,1.33,5.3134,5.3134,0,0,1-1.05.23v.45h9.31v-.42a6.74,6.74,0,0,1-.98-.22"/>
        </g>
        <g>
          <polygon class="cls-1" points="61.84 36.24 60.84 36.24 60.84 44.84 66.55 44.84 66.55 43.95 61.84 43.95 61.84 36.24"/>
          <path class="cls-1" d="M83.23,37.42a3.7887,3.7887,0,0,0-1.27-.99,4.1144,4.1144,0,0,0-1.77-.37,4.0174,4.0174,0,0,0-1.78.37,3.8277,3.8277,0,0,0-1.28.99,4.3707,4.3707,0,0,0-.76,1.43h0a5.8372,5.8372,0,0,0,0,3.38,4.2252,4.2252,0,0,0,.76,1.42,3.7887,3.7887,0,0,0,1.27.99,4.0964,4.0964,0,0,0,1.78.37,3.914,3.914,0,0,0,1.77-.37,3.6667,3.6667,0,0,0,1.27-.99,4.2252,4.2252,0,0,0,.76-1.42,5.8372,5.8372,0,0,0,0-3.38A4.1589,4.1589,0,0,0,83.23,37.42Zm-3.04,6.71a2.882,2.882,0,0,1-1.39-.31,2.7883,2.7883,0,0,1-.95-.81,3.5966,3.5966,0,0,1-.55-1.15,4.8878,4.8878,0,0,1-.18-1.32,4.9606,4.9606,0,0,1,.18-1.33,3.5966,3.5966,0,0,1,.55-1.15,2.7883,2.7883,0,0,1,.95-.81,2.9721,2.9721,0,0,1,1.39-.31,2.8147,2.8147,0,0,1,1.38.31,2.8488,2.8488,0,0,1,.94.81,3.4983,3.4983,0,0,1,.55,1.15,4.9667,4.9667,0,0,1,0,2.65,3.55,3.55,0,0,1-.55,1.16,2.6493,2.6493,0,0,1-.94.81A2.9587,2.9587,0,0,1,80.19,44.13Z"/>
          <path class="cls-1" d="M100.36,40.94a2.6242,2.6242,0,0,0-.72-.44,7.1967,7.1967,0,0,0-.86-.29l-2.05-.51a2.8945,2.8945,0,0,1-.47-.15,1.6059,1.6059,0,0,1-.38-.23,1.0305,1.0305,0,0,1-.25-.33,1.1261,1.1261,0,0,1-.09-.47,1.6507,1.6507,0,0,1,.16-.74,1.35,1.35,0,0,1,.44-.48,1.962,1.962,0,0,1,.64-.27,3.1861,3.1861,0,0,1,.77-.09,2.8723,2.8723,0,0,1,.83.12,2.3061,2.3061,0,0,1,.68.35,1.8726,1.8726,0,0,1,.48.57,1.9236,1.9236,0,0,1,.21.8l.01.09h.99v-.1a2.5664,2.5664,0,0,0-.26-1.18,2.4963,2.4963,0,0,0-.7-.85,2.9643,2.9643,0,0,0-1.02-.51,4.3893,4.3893,0,0,0-1.22-.17,3.7217,3.7217,0,0,0-1.49.26,2.65,2.65,0,0,0-.92.64,1.9857,1.9857,0,0,0-.46.82,2.7588,2.7588,0,0,0-.12.74,1.9756,1.9756,0,0,0,.17.88,1.7984,1.7984,0,0,0,.44.6,2.25,2.25,0,0,0,.64.4,6.0716,6.0716,0,0,0,.72.24l1.87.46a5.3786,5.3786,0,0,1,.59.18,2.3,2.3,0,0,1,.54.28,1.4487,1.4487,0,0,1,.38.4,1.0146,1.0146,0,0,1,.14.56,1.2554,1.2554,0,0,1-.21.73,1.58,1.58,0,0,1-.53.5,2.4663,2.4663,0,0,1-.69.29,3.042,3.042,0,0,1-.69.09,5.3009,5.3009,0,0,1-1.06-.11,2.3638,2.3638,0,0,1-.84-.35,1.7742,1.7742,0,0,1-.55-.66,2.3311,2.3311,0,0,1-.19-1.04v-.1h-1v.1a3.2156,3.2156,0,0,0,.21,1.37,2.38,2.38,0,0,0,.72.95,3.2432,3.2432,0,0,0,1.12.54,5.6575,5.6575,0,0,0,1.4.17,4.9253,4.9253,0,0,0,1.3-.14,3.0367,3.0367,0,0,0,.91-.37,1.9959,1.9959,0,0,0,.59-.51,2.73,2.73,0,0,0,.33-.56,1.85,1.85,0,0,0,.15-.53,3.3026,3.3026,0,0,0,.03-.39,2.126,2.126,0,0,0-.18-.92A2.0088,2.0088,0,0,0,100.36,40.94Z"/>
          <path class="cls-1" d="M126.69,36.24l-3.46,8.6h1.06l1.01-2.61h3.69l1.02,2.61h1.07l-3.37-8.6Zm1.96,5.1h-3.02l1.53-3.92Z"/>
          <polygon class="cls-1" points="146.82 43.16 142.08 36.28 142.05 36.24 141.01 36.24 141.01 44.84 142.01 44.84 142.01 37.92 146.74 44.79 146.77 44.84 147.82 44.84 147.82 36.24 146.82 36.24 146.82 43.16"/>
          <path class="cls-1" d="M162.32,41.25h2.86a3.4768,3.4768,0,0,1-.17,1.1,2.6586,2.6586,0,0,1-.54.94,2.4971,2.4971,0,0,1-.89.62,3.091,3.091,0,0,1-1.2.22,2.882,2.882,0,0,1-1.39-.31,2.773,2.773,0,0,1-.95-.81,3.4052,3.4052,0,0,1-.55-1.15,4.9667,4.9667,0,0,1,0-2.65,3.49,3.49,0,0,1,.55-1.15,2.724,2.724,0,0,1,.94-.81,2.9721,2.9721,0,0,1,1.39-.31,2.6078,2.6078,0,0,1,1.04.19,2.7456,2.7456,0,0,1,.8.48,2.4457,2.4457,0,0,1,.53.65,1.8548,1.8548,0,0,1,.23.7l.01.09h1.01l-.02-.12a3.51,3.51,0,0,0-.45-1.25,3.1429,3.1429,0,0,0-.8-.9,3.2246,3.2246,0,0,0-1.08-.54,4.4,4.4,0,0,0-1.28-.18,4.0174,4.0174,0,0,0-1.78.37,3.6,3.6,0,0,0-1.27.99,4.2252,4.2252,0,0,0-.76,1.42,5.8372,5.8372,0,0,0,0,3.38,4.0556,4.0556,0,0,0,.76,1.42,3.6922,3.6922,0,0,0,1.27.99,4.0174,4.0174,0,0,0,1.78.37,3.9662,3.9662,0,0,0,.91-.1,3.303,3.303,0,0,0,.83-.31,2.8279,2.8279,0,0,0,.71-.55,2.9861,2.9861,0,0,0,.4-.52l.09,1.31h.77V40.36H162.3v.89Z"/>
          <polygon class="cls-1" points="177.84 40.84 182.52 40.84 182.52 39.95 177.84 39.95 177.84 37.12 182.84 37.12 182.84 36.24 176.84 36.24 176.84 44.84 182.9 44.84 182.9 43.95 177.84 43.95 177.84 40.84"/>
          <polygon class="cls-1" points="194.22 36.24 193.22 36.24 193.22 44.84 198.93 44.84 198.93 43.95 194.22 43.95 194.22 36.24"/>
          <polygon class="cls-1" points="209.95 40.84 214.63 40.84 214.63 39.95 209.95 39.95 209.95 37.12 214.95 37.12 214.95 36.24 208.95 36.24 208.95 44.84 215.01 44.84 215.01 43.95 209.95 43.95 209.95 40.84"/>
          <path class="cls-1" d="M231.5,41.59a1.9587,1.9587,0,0,0-.49-.65,2.7821,2.7821,0,0,0-.72-.44,6.1562,6.1562,0,0,0-.86-.29l-2.05-.51a2.8816,2.8816,0,0,1-.47-.15,1.6036,1.6036,0,0,1-.38-.23,1.03,1.03,0,0,1-.25-.33,1.1261,1.1261,0,0,1-.09-.47,1.5277,1.5277,0,0,1,.16-.74,1.3314,1.3314,0,0,1,.43-.48,1.7682,1.7682,0,0,1,.64-.27,3.211,3.211,0,0,1,1.6.03,2.3043,2.3043,0,0,1,.68.35,1.8729,1.8729,0,0,1,.48.57,1.9236,1.9236,0,0,1,.21.8v.09h1v-.1a2.5666,2.5666,0,0,0-.26-1.18,2.4963,2.4963,0,0,0-.7-.85,2.9642,2.9642,0,0,0-1.02-.51,4.3856,4.3856,0,0,0-1.22-.17,3.7557,3.7557,0,0,0-1.49.26,2.593,2.593,0,0,0-.92.64,2.1412,2.1412,0,0,0-.46.81,2.6563,2.6563,0,0,0-.12.75,2.1224,2.1224,0,0,0,.17.88,1.7957,1.7957,0,0,0,.44.6,2.1939,2.1939,0,0,0,.63.4,5.6836,5.6836,0,0,0,.73.24l1.87.46a4.2939,4.2939,0,0,1,.59.18,2.2963,2.2963,0,0,1,.54.28,1.3506,1.3506,0,0,1,.39.4,1.1343,1.1343,0,0,1,.14.56,1.3049,1.3049,0,0,1-.2.73,1.58,1.58,0,0,1-.53.5,2.4663,2.4663,0,0,1-.69.29,3.1233,3.1233,0,0,1-.7.09,5.2936,5.2936,0,0,1-1.06-.11,2.3638,2.3638,0,0,1-.84-.35,1.7731,1.7731,0,0,1-.55-.66h0a2.1765,2.1765,0,0,1-.19-1.04v-.1h-1v.1a3.2156,3.2156,0,0,0,.21,1.37,2.38,2.38,0,0,0,.72.95,3.2431,3.2431,0,0,0,1.12.54,5.6528,5.6528,0,0,0,1.4.17,4.9753,4.9753,0,0,0,1.3-.14,3.0378,3.0378,0,0,0,.91-.37,1.9971,1.9971,0,0,0,.59-.51,2.3427,2.3427,0,0,0,.33-.56,1.8462,1.8462,0,0,0,.15-.53,3.2817,3.2817,0,0,0,.03-.39A2.5361,2.5361,0,0,0,231.5,41.59Z"/>
        </g>
      </g>
    </g>
  </g>
</svg>
