<svg xmlns="http://www.w3.org/2000/svg" width="320" height="51" viewBox="0 0 320 51"><defs><style>.a{fill:#101820;}</style></defs><g transform="translate(-33.146 -31.864)"><path class="a" d="M314.23,35.43l2.758,7.592h-5.676Zm10.461,13.19a2.081,2.081,0,0,1-1.339-.9,19.463,19.463,0,0,1-1.334-2.746c-.083-.205-.166-.416-.254-.637-.131-.332-.266-.676-.407-1.045l-1.814-4.951-.152-.41-.879-2.4-1.2-3.272h-2.585l-.926,2.365-1.418,3.623L309.545,45.5a8.665,8.665,0,0,1-1.055,2.035,2.852,2.852,0,0,1-1.055.927,3.441,3.441,0,0,1-1.224.336v.446h5.758V48.8a5.342,5.342,0,0,1-1.112-.23,1.445,1.445,0,0,1-.939-1.385,4.561,4.561,0,0,1,.428-1.633l.713-1.9h6.158l.609,1.67a5.276,5.276,0,0,1,.512,1.914,1.342,1.342,0,0,1-.942,1.334,4.918,4.918,0,0,1-1.054.23v.446h9.318v-.422a5.16,5.16,0,0,1-.969-.2" transform="translate(27.486)"/><path class="a" d="M97.032,32.786a1.73,1.73,0,0,0-1.234.941,7.229,7.229,0,0,0-.354,2.943V49.334H94.39L83.48,35.352v9.381a6.016,6.016,0,0,0,.4,2.846A1.79,1.79,0,0,0,85.145,48.6a4.71,4.71,0,0,0,.948.154v.42H80.056v-.42a5.048,5.048,0,0,0,.977-.154,1.747,1.747,0,0,0,1.234-1.025,5.79,5.79,0,0,0,.46-2.846V37.678a7.629,7.629,0,0,0-.546-3.48,3.558,3.558,0,0,0-1.78-1.4,4.015,4.015,0,0,0-.918-.179V32.2H86.15L94.678,43.52h.016V36.67a7.409,7.409,0,0,0-.418-2.943,1.882,1.882,0,0,0-1.292-.941,4.567,4.567,0,0,0-.948-.157V32.2h5.972v.427a5.691,5.691,0,0,0-.976.157" transform="translate(4.648)"/><path class="a" d="M145.5,32.786a2.026,2.026,0,0,0-1.262,1.06,7.258,7.258,0,0,0-.424,3.1v6.547a7.186,7.186,0,0,1-.861,3.72c-.706,1.168-2.254,2.287-5.019,2.324h-.387c-2.986,0-5.312-.747-6.374-2.97a10.127,10.127,0,0,1-.632-3.695V37.438A12.293,12.293,0,0,0,130.226,34a1.719,1.719,0,0,0-1.321-1.215c-.316-.077-.66-.129-.862-.157V32.2h8.987v.427c-.2.028-.516.08-.832.157A1.752,1.752,0,0,0,134.848,34a13.467,13.467,0,0,0-.314,3.437v6.547a7.34,7.34,0,0,0,.37,2.508,3.373,3.373,0,0,0,3.562,2.222,4.282,4.282,0,0,0,3.991-1.992,7.1,7.1,0,0,0,.6-3.125v-6.65a7.355,7.355,0,0,0-.4-3.1,1.951,1.951,0,0,0-1.262-1.06,4.891,4.891,0,0,0-.978-.157V32.2h6.06v.427a4.88,4.88,0,0,0-.977.157" transform="translate(9.517)"/><path class="a" d="M190.35,36.258l-2.9,5.428v2.24a11.413,11.413,0,0,0,.344,3.463,1.647,1.647,0,0,0,1.293,1.215c.344.078.658.129.861.154v.42H180.96v-.42a8.283,8.283,0,0,0,.892-.154,1.725,1.725,0,0,0,1.322-1.215,12.691,12.691,0,0,0,.314-3.463V42.331L179.381,35.1c-.974-1.76-1.75-2.285-3.3-2.467V32.2h9.215v.429a5.816,5.816,0,0,0-1.111.207c-1.178.415-.948,1.276-.317,2.516l3.072,5.635h.088l2.639-4.91a5.662,5.662,0,0,0,.861-2.221,1.1,1.1,0,0,0-.849-1.059,4.344,4.344,0,0,0-.963-.168V32.2h5.912v.429c-1.807.258-2.813.942-4.277,3.629" transform="translate(14.34)"/><path class="a" d="M224.685,32.575a3.432,3.432,0,0,0-1.292.232,1.372,1.372,0,0,0-.717,1.008,8.826,8.826,0,0,0-.116,1.836v4.988a6.209,6.209,0,0,0,1.551.207c1.838,0,2.469-.414,3.016-1.189a5.94,5.94,0,0,0,.746-3.024c0-2.509-.861-4.058-3.188-4.058m5.2,7.935a13.275,13.275,0,0,1-5.772.957,11.461,11.461,0,0,1-1.551-.131v1.415a16.724,16.724,0,0,0,.432,4.65,1.859,1.859,0,0,0,1.318,1.137,7.415,7.415,0,0,0,1.065.156v.42h-9.42v-.445a6.554,6.554,0,0,0,.891-.131,1.908,1.908,0,0,0,1.293-1.162,16.475,16.475,0,0,0,.459-4.625V38.419a16.4,16.4,0,0,0-.459-4.6,1.935,1.935,0,0,0-1.293-1.137,6.206,6.206,0,0,0-.891-.127v-.42h9.3c4.308,0,6.89,1.422,6.89,4.471a4.5,4.5,0,0,1-2.267,3.9" transform="translate(18.184)"/><path class="a" d="M254.346,49.114h-15.19v-.42a5.389,5.389,0,0,0,.92-.129,1.825,1.825,0,0,0,1.291-1.137,15.481,15.481,0,0,0,.432-4.6V38.448a16.313,16.313,0,0,0-.432-4.6,1.8,1.8,0,0,0-1.32-1.137,4.7,4.7,0,0,0-.862-.154v-.422H248.4v.422a5.172,5.172,0,0,0-.861.154,1.855,1.855,0,0,0-1.352,1.137,16.37,16.37,0,0,0-.429,4.6v5.808a10.566,10.566,0,0,0,.259,2.893,1.742,1.742,0,0,0,.788,1.035,3.279,3.279,0,0,0,1.695.414h.67a3.566,3.566,0,0,0,2.783-1.24,15.491,15.491,0,0,0,2.4-4.057h.422Z" transform="translate(20.45)"/><path class="a" d="M300.43,32.393,290.408,48.649h1.8c2.428,0,3.92-.475,5.053-1.369a10.807,10.807,0,0,0,3.006-3.643h.421l-1.148,5.608H285.412v-.131l10.4-16.2h-2.375a8.678,8.678,0,0,0-4.623,1.187,10.436,10.436,0,0,0-2.713,3.311h-.424l1.092-5.145H300.43Z" transform="translate(27.486)"/><path class="a" d="M161.177,40.352h-1.349V35.147a4.034,4.034,0,0,1,.287-1.939,1.691,1.691,0,0,1,1.521-.594h.173c2.3,0,2.987,1.55,2.987,3.875a5.339,5.339,0,0,1-.719,2.906c-.488.672-1.205.957-2.9.957m10.1,8.633a3.258,3.258,0,0,1-1-.373c-.633-.492-1.12-1.682-1.523-3.877a4.615,4.615,0,0,0-1.952-3.18,6.721,6.721,0,0,0-2.526-.748v-.078a6.357,6.357,0,0,0,2.526-.647,3.839,3.839,0,0,0,2.411-3.593c0-2.944-2.9-4.289-6.66-4.289h-9.218v.429a5.828,5.828,0,0,1,.834.155A1.756,1.756,0,0,1,155.521,34a13.766,13.766,0,0,1,.316,3.439v6.488a12.56,12.56,0,0,1-.316,3.463,1.716,1.716,0,0,1-1.321,1.24,5.569,5.569,0,0,1-.862.129v.42h9.16v-.42a8.025,8.025,0,0,1-1.005-.129,1.758,1.758,0,0,1-1.32-1.24,12.42,12.42,0,0,1-.345-3.463V40.987h.976c1.321,0,2.125.078,2.729.8a5.641,5.641,0,0,1,1.031,2.937c.109,1.037.223,2.979,1.221,4.242.055.077.107.151.159.211.03.033.066.059.1.088s.028.037.045.053.058.043.088.068c1.6,1.319,4.851.42,5.512-.209v-.129Z" transform="translate(12.05)"/><path class="a" d="M49.054,43.545c-1.038,3.659-3.824,5.014-5.715,5.014a5.759,5.759,0,0,1-3.129-.8c-1.665-1.242-2.785-3.129-2.785-7.082,0-3.463.66-5.632,1.694-6.847A4.3,4.3,0,0,1,42.477,32.3c3.448,0,5.256,2.43,6.261,6.229h.416V32.485h-.331l-.017.029a1.141,1.141,0,0,1-1.648.463l-.028-.014a9.775,9.775,0,0,0-4.681-1.1c-4.536,0-9.3,2.482-9.3,8.812s4.6,8.863,9.1,8.863h.244a7.152,7.152,0,0,0,7.077-5.867Z"/><path class="a" d="M120.785,32.237H105.423l-.746,5.476h.421a11.687,11.687,0,0,1,2.178-3.541,4.135,4.135,0,0,1,3.044-1.41h.818V43.989a12.027,12.027,0,0,1-.346,3.437,1.827,1.827,0,0,1-1.348,1.266,3.73,3.73,0,0,1-.862.1v.42h9.045v-.42a3.716,3.716,0,0,1-.861-.1,1.826,1.826,0,0,1-1.349-1.266,12.027,12.027,0,0,1-.346-3.437V32.762h.818a4.131,4.131,0,0,1,3.043,1.41,11.692,11.692,0,0,1,2.179,3.541h.421Z" transform="translate(7.132)"/><path class="a" d="M71.679,49.178H56.662v-.42a3.966,3.966,0,0,0,.862-.156,1.758,1.758,0,0,0,1.35-1.215,13.861,13.861,0,0,0,.315-3.463v-6.47a13.738,13.738,0,0,0-.315-3.463,1.758,1.758,0,0,0-1.35-1.215,7.105,7.105,0,0,0-.862-.156V32.2H71.019l.6,5.324h-.414a9.343,9.343,0,0,0-1.929-3.654,4.554,4.554,0,0,0-2.968-1.162h-.6a2.366,2.366,0,0,0-1.608.441c-.919.67-1,2.076-1,3.135v3.7h1.06c1.638,0,2.129-.076,2.7-.568a4.264,4.264,0,0,0,1.158-2.645h.42v7.16h-.421a3.845,3.845,0,0,0-1.044-2.5,4.2,4.2,0,0,0-2.818-.7H63.094v4.177c0,1.061-.028,2.547.89,3.219a3.18,3.18,0,0,0,1.923.543h.568a3.762,3.762,0,0,0,2.928-1.24,11.576,11.576,0,0,0,2.257-4.123h.421Z"/><path class="a" d="M268.1,35.43l2.757,7.592h-5.675Zm10.46,13.19a2.081,2.081,0,0,1-1.339-.9,19.463,19.463,0,0,1-1.334-2.746c-.084-.205-.168-.416-.254-.637-.131-.332-.266-.676-.407-1.045l-1.816-4.951-.15-.41-.879-2.4-1.2-3.272H268.6l-.926,2.365-1.42,3.623L263.416,45.5a8.7,8.7,0,0,1-1.055,2.035,2.866,2.866,0,0,1-1.054.927,3.463,3.463,0,0,1-1.225.336v.446h5.758V48.8a5.342,5.342,0,0,1-1.112-.23,1.442,1.442,0,0,1-.939-1.385,4.59,4.59,0,0,1,.426-1.633l.715-1.9h6.158l.607,1.67a5.275,5.275,0,0,1,.512,1.914,1.341,1.341,0,0,1-.939,1.334,4.967,4.967,0,0,1-1.055.23v.446h9.318v-.422a5.128,5.128,0,0,1-.969-.2" transform="translate(22.843)"/><path class="a" d="M100.3,70.563v7.3h4.451v.647H99.545V70.563Z" transform="translate(6.352 4.197)"/><path class="a" d="M114.932,75.81a3.456,3.456,0,0,0,.535,1.124,2.688,2.688,0,0,0,.928.8,2.868,2.868,0,0,0,1.36.3,2.823,2.823,0,0,0,1.351-.3,2.68,2.68,0,0,0,.923-.8,3.357,3.357,0,0,0,.535-1.124,4.807,4.807,0,0,0,0-2.556,3.412,3.412,0,0,0-.535-1.118,2.7,2.7,0,0,0-.923-.794,2.823,2.823,0,0,0-1.351-.3,2.868,2.868,0,0,0-1.36.3,2.712,2.712,0,0,0-.928.794,3.515,3.515,0,0,0-.535,1.118,4.861,4.861,0,0,0,0,2.556m-.695-2.845a3.946,3.946,0,0,1,.7-1.318,3.329,3.329,0,0,1,1.175-.911,4.129,4.129,0,0,1,3.277,0,3.374,3.374,0,0,1,1.17.911,3.944,3.944,0,0,1,.7,1.318,5.384,5.384,0,0,1,0,3.14,3.831,3.831,0,0,1-.7,1.312,3.411,3.411,0,0,1-1.17.907,4.129,4.129,0,0,1-3.277,0,3.365,3.365,0,0,1-1.175-.907,3.833,3.833,0,0,1-.7-1.312,5.384,5.384,0,0,1,0-3.14" transform="translate(7.797 4.197)"/><path class="a" d="M132.124,76.918a1.732,1.732,0,0,0,.549.659,2.412,2.412,0,0,0,.831.349,4.822,4.822,0,0,0,1.023.106,2.872,2.872,0,0,0,.68-.091,2.415,2.415,0,0,0,.684-.282,1.736,1.736,0,0,0,.528-.5,1.274,1.274,0,0,0,.212-.741,1.089,1.089,0,0,0-.149-.577,1.356,1.356,0,0,0-.391-.411,2.448,2.448,0,0,0-.529-.274,5.419,5.419,0,0,0-.567-.172l-1.771-.434a4.986,4.986,0,0,1-.672-.222,1.928,1.928,0,0,1-.574-.358,1.719,1.719,0,0,1-.4-.543,1.907,1.907,0,0,1-.149-.792,2.547,2.547,0,0,1,.112-.678,1.873,1.873,0,0,1,.417-.734,2.4,2.4,0,0,1,.84-.584,3.364,3.364,0,0,1,1.369-.239,3.979,3.979,0,0,1,1.124.154,2.721,2.721,0,0,1,.935.468,2.343,2.343,0,0,1,.641.772,2.31,2.31,0,0,1,.239,1.077h-.757a1.855,1.855,0,0,0-.206-.8,1.793,1.793,0,0,0-.479-.568,2.128,2.128,0,0,0-.678-.345,2.727,2.727,0,0,0-.808-.116,3.3,3.3,0,0,0-.75.084,1.79,1.79,0,0,0-.635.267,1.39,1.39,0,0,0-.441.484,1.537,1.537,0,0,0-.166.747,1.16,1.16,0,0,0,.094.483,1.045,1.045,0,0,0,.262.349,1.39,1.39,0,0,0,.385.235,2.942,2.942,0,0,0,.46.145l1.937.48a5.717,5.717,0,0,1,.8.27,2.58,2.58,0,0,1,.657.4,1.687,1.687,0,0,1,.445.584,1.952,1.952,0,0,1,.163.835,2.923,2.923,0,0,1-.028.355,1.773,1.773,0,0,1-.135.474,2.264,2.264,0,0,1-.3.5,1.807,1.807,0,0,1-.535.462,3.064,3.064,0,0,1-.839.336,4.942,4.942,0,0,1-1.2.125,5.041,5.041,0,0,1-1.3-.16,2.847,2.847,0,0,1-1.024-.493,2.2,2.2,0,0,1-.652-.86,2.818,2.818,0,0,1-.194-1.256h.759a2.218,2.218,0,0,0,.188,1.024" transform="translate(9.411 4.197)"/><path class="a" d="M163.744,75.392l-1.537-4.072-1.592,4.072Zm-1.079-4.829,3.116,7.946h-.813L164,76.039h-3.616l-.958,2.47h-.8l3.194-7.946Z" transform="translate(12.086 4.197)"/><path class="a" d="M176.244,70.563l4.629,6.722h.023V70.563h.756v7.946h-.847l-4.629-6.722h-.022v6.722H175.4V70.563Z" transform="translate(13.659 4.197)"/><path class="a" d="M198.392,78.509l-.1-1.447h-.021a2.688,2.688,0,0,1-1.15,1.231,2.859,2.859,0,0,1-.759.283,3.97,3.97,0,0,1-.842.091,3.721,3.721,0,0,1-1.642-.343,3.389,3.389,0,0,1-1.174-.907,3.81,3.81,0,0,1-.7-1.309,5.438,5.438,0,0,1,0-3.143,3.866,3.866,0,0,1,.7-1.315,3.325,3.325,0,0,1,1.174-.914,3.763,3.763,0,0,1,1.642-.339,4.023,4.023,0,0,1,1.181.166,3.049,3.049,0,0,1,.992.5,2.936,2.936,0,0,1,.731.825,3.206,3.206,0,0,1,.415,1.146h-.76a1.763,1.763,0,0,0-.226-.7,2.466,2.466,0,0,0-.524-.64,2.723,2.723,0,0,0-.785-.471,2.64,2.64,0,0,0-1.024-.185,2.867,2.867,0,0,0-1.359.3,2.674,2.674,0,0,0-.926.8,3.352,3.352,0,0,0-.534,1.114,4.728,4.728,0,0,0,0,2.556,3.328,3.328,0,0,0,.534,1.124,2.682,2.682,0,0,0,.926.8,2.867,2.867,0,0,0,1.359.3,3.08,3.08,0,0,0,1.175-.216,2.5,2.5,0,0,0,.875-.609,2.591,2.591,0,0,0,.534-.923,3.5,3.5,0,0,0,.167-1.168h-2.707v-.647h3.375v4.04Z" transform="translate(15.28 4.197)"/><path class="a" d="M214.786,70.563v.644h-4.731V74.08h4.43v.647h-4.43v3.136h4.788v.647H209.3V70.563Z" transform="translate(16.872 4.197)"/><path class="a" d="M225.561,70.563v7.3h4.452v.647H224.8V70.563Z" transform="translate(18.336 4.197)"/><path class="a" d="M245.171,70.563v.644h-4.728V74.08h4.427v.647h-4.427v3.136h4.785v.647h-5.544V70.563Z" transform="translate(19.782 4.197)"/><path class="a" d="M255.735,76.918a1.714,1.714,0,0,0,.549.659,2.434,2.434,0,0,0,.829.349,4.867,4.867,0,0,0,1.024.106,2.874,2.874,0,0,0,.681-.091,2.4,2.4,0,0,0,.685-.282,1.755,1.755,0,0,0,.527-.5,1.273,1.273,0,0,0,.21-.741,1.107,1.107,0,0,0-.147-.577,1.363,1.363,0,0,0-.393-.411,2.366,2.366,0,0,0-.527-.274,5.365,5.365,0,0,0-.568-.172l-1.768-.434a5.073,5.073,0,0,1-.675-.222,1.864,1.864,0,0,1-.571-.358,1.7,1.7,0,0,1-.4-.543,1.874,1.874,0,0,1-.151-.792,2.4,2.4,0,0,1,.113-.678,1.855,1.855,0,0,1,.415-.734,2.411,2.411,0,0,1,.841-.584,3.358,3.358,0,0,1,1.369-.239,3.99,3.99,0,0,1,1.124.154,2.735,2.735,0,0,1,.936.468,2.34,2.34,0,0,1,.64.772,2.31,2.31,0,0,1,.239,1.077h-.757a1.869,1.869,0,0,0-.207-.8,1.84,1.84,0,0,0-.477-.568,2.149,2.149,0,0,0-.678-.345,2.744,2.744,0,0,0-.807-.116,3.332,3.332,0,0,0-.754.084,1.793,1.793,0,0,0-.634.267,1.4,1.4,0,0,0-.44.484,1.548,1.548,0,0,0-.166.747,1.16,1.16,0,0,0,.094.483,1,1,0,0,0,.264.349,1.351,1.351,0,0,0,.383.235,2.922,2.922,0,0,0,.461.145l1.934.48a5.7,5.7,0,0,1,.8.27,2.664,2.664,0,0,1,.659.4,1.693,1.693,0,0,1,.443.584,1.967,1.967,0,0,1,.163.835,2.923,2.923,0,0,1-.028.355,1.773,1.773,0,0,1-.135.474,2.2,2.2,0,0,1-.3.5A1.8,1.8,0,0,1,260,78.2a3.069,3.069,0,0,1-.838.336,4.956,4.956,0,0,1-1.2.125,5.045,5.045,0,0,1-1.3-.16,2.818,2.818,0,0,1-1.023-.493,2.2,2.2,0,0,1-.653-.86,2.818,2.818,0,0,1-.195-1.256h.757a2.23,2.23,0,0,0,.191,1.024" transform="translate(21.278 4.197)"/></g></svg>