<?xml version="1.0" encoding="UTF-8"?>
<svg width="250px" height="16px" viewBox="0 0 250 16" version="1.1" xmlns="http://www.w3.org/2000/svg" xmlns:xlink="http://www.w3.org/1999/xlink">
    <!-- Generator: Sketch 56.3 (81716) - https://sketch.com -->
    <title>Group 26</title>
    <desc>Created with Sketch.</desc>
    <defs>
        <polygon id="path-1" points="0.000170648464 0.180887372 14.0129693 0.180887372 14.0129693 15.2620307 0.000170648464 15.2620307"></polygon>
    </defs>
    <g id="Page-1" stroke="none" stroke-width="1" fill="none" fill-rule="evenodd" opacity="0.9">
        <g id="1680x950---Century-Plaza-2" transform="translate(-40.000000, -25.000000)">
            <g id="Group-26" transform="translate(40.000000, 25.000000)">
                <path d="M248.758447,14.65 C248.345478,14.5416382 247.957253,14.3863481 247.615102,13.8854949 C247.284898,13.3215017 246.91715,12.6354949 246.476877,11.5416382 C246.406911,11.3667235 246.335239,11.1866894 246.260154,10.9989761 C246.148379,10.7156997 246.034044,10.4221843 245.913737,10.1073379 L244.365956,5.88293515 L244.23541,5.53225256 L243.48541,3.48788396 L242.462372,0.696075085 L241.539164,0.696075085 L240.255887,0.696075085 L239.465785,2.71484642 L238.255887,5.80614334 L235.835239,11.9887372 C235.493089,12.8419795 235.228584,13.3317406 234.935068,13.7250853 C234.643259,14.1619454 234.326706,14.343686 234.034898,14.5168942 C233.695307,14.6935154 233.354863,14.7583618 232.990529,14.8035836 L232.990529,15.1832765 L237.902645,15.1832765 L237.902645,14.8035836 C237.661177,14.7796928 237.271246,14.7148464 236.954693,14.6064846 C236.517833,14.4298635 236.153498,14.0365188 236.153498,13.424744 C236.153498,13.0305461 236.249915,12.7771331 236.517833,12.0322526 L237.126195,10.4102389 L242.380461,10.4102389 L242.900939,11.8351536 C243.144113,12.5348123 243.336945,12.8547782 243.336945,13.4682594 C243.336945,14.1013652 242.997355,14.4085324 242.534044,14.6064846 C242.315614,14.6935154 241.878754,14.7796928 241.633874,14.8035836 L241.633874,15.1832765 L244.10913,15.1832765 L245.034044,15.1832765 L249.585239,15.1832765 L249.585239,14.8232082 C249.342065,14.8035836 249.051962,14.7370307 248.758447,14.65 L248.758447,14.65 Z M239.832679,3.39658703 L242.185922,9.87354949 L237.342918,9.87354949 L239.832679,3.39658703 Z" id="Fill-1" fill="#101820"></path>
                <path d="M54.5099829,1.13984642 C54.0936007,1.24991468 53.6772184,1.4581058 53.4570819,1.94274744 C53.2360922,2.47261092 53.1550341,3.02124573 53.1550341,4.45469283 L53.1550341,15.2601536 L52.2548635,15.2601536 L42.946843,3.32926621 L42.946843,11.3335324 C42.946843,12.768686 43.0441126,13.2337031 43.2898464,13.7618601 C43.4852389,14.2465017 43.9263652,14.5255119 44.3674915,14.6364334 C44.6115188,14.7004266 44.8325085,14.7447952 45.1763652,14.768686 L45.1763652,15.1270478 L40.0244881,15.1270478 L40.0244881,14.768686 C40.3683447,14.7447952 40.6140785,14.7004266 40.8581058,14.6364334 C41.2992321,14.5255119 41.7156143,14.2465017 41.9118601,13.7618601 C42.1567406,13.2337031 42.3043515,12.768686 42.3043515,11.3335324 L42.3043515,5.31476109 C42.3043515,3.81305461 42.1388225,2.88643345 41.8384812,2.34462457 C41.5688567,1.85827645 40.9562287,1.39667235 40.3197099,1.15349829 C40.0748294,1.06476109 39.7557167,1.01953925 39.5364334,0.999914676 L39.5364334,0.641552901 L45.225,0.641552901 L52.5014505,10.2985495 L52.5151024,10.2985495 L52.5151024,4.45469283 C52.5151024,3.02124573 52.3538396,2.47261092 52.1584471,1.94274744 C51.9135666,1.4581058 51.4724403,1.24991468 51.056058,1.13984642 C50.8111775,1.075 50.5901877,1.02977816 50.2471843,1.00674061 L50.2471843,0.641552901 L55.3427474,0.641552901 L55.3427474,1.00674061 C55.0253413,1.02977816 54.7787543,1.075 54.5099829,1.13984642" id="Fill-3" fill="#101820"></path>
                <path d="M95.8651877,1.13984642 C95.4735495,1.24991468 95.0085324,1.55964164 94.7875427,2.04513652 C94.5418089,2.575 94.4257679,3.25588737 94.4257679,4.69104096 L94.4257679,10.2772184 C94.4257679,11.5118601 94.2064846,12.5920648 93.6911263,13.4521331 C93.0887372,14.4487201 91.7679181,15.4034983 89.4095563,15.4350683 L89.0793515,15.4350683 C86.53157,15.4350683 84.5469283,14.796843 83.640785,12.9000853 C83.2482935,12.1500853 83.1015358,10.5639078 83.1015358,9.74735495 L83.1015358,5.10912969 C83.1015358,3.9197099 83.0520478,2.79257679 82.8319113,2.17653584 C82.6356655,1.5366041 82.1953925,1.27124573 81.7047782,1.13984642 C81.4360068,1.075 81.1416382,1.02977816 80.9692833,1.00674061 L80.9692833,0.641552901 L88.6382253,0.641552901 L88.6382253,1.00674061 C88.4658703,1.02977816 88.197099,1.075 87.9274744,1.13984642 C87.4129693,1.27124573 86.996587,1.5366041 86.7764505,2.17653584 C86.5802048,2.79257679 86.5076792,3.9197099 86.5076792,5.10912969 L86.5076792,10.6953072 C86.5076792,11.4000853 86.5802048,12.1953072 86.8233788,12.8352389 C87.3395904,14.1569113 88.3199659,14.7319966 89.8634812,14.7319966 C91.4317406,14.7319966 92.7056314,14.1133959 93.2687713,13.0323379 C93.6109215,12.3267065 93.7832765,11.4453072 93.7832765,10.3659556 L93.7832765,4.69104096 C93.7832765,3.25588737 93.6843003,2.575 93.4385666,2.04513652 C93.2448805,1.58011945 92.7790102,1.24991468 92.362628,1.13984642 C92.116041,1.075 91.8711604,1.02977816 91.528157,1.00674061 L91.528157,0.641552901 L96.6988055,0.641552901 L96.6988055,1.00674061 C96.3540956,1.02977816 96.1100683,1.075 95.8651877,1.13984642" id="Fill-5" fill="#101820"></path>
                <path d="M134.132338,4.1028157 L131.659642,8.73421502 L131.659642,10.6454778 C131.659642,11.8366041 131.707423,12.9603242 131.952304,13.600256 C132.123805,14.2384812 132.564078,14.5046928 133.055546,14.6369454 C133.349061,14.7034983 133.61698,14.7470137 133.791041,14.7683447 L133.791041,15.1267065 L126.121246,15.1267065 L126.121246,14.7683447 C126.318345,14.7470137 126.586263,14.7034983 126.881485,14.6369454 C127.371246,14.5046928 127.813225,14.2384812 128.009471,13.600256 C128.227901,12.9603242 128.278242,11.8366041 128.278242,10.6454778 L128.278242,9.28370307 L124.773976,3.11134812 C123.942065,1.60964164 123.280802,1.16168942 121.95657,1.00639932 L121.95657,0.639505119 L129.819198,0.639505119 L129.819198,1.00639932 C129.576024,1.02773038 129.116126,1.096843 128.871246,1.18302048 C127.866126,1.5362628 128.063225,2.27175768 128.601621,3.32977816 L131.222782,8.13779863 L131.297867,8.13779863 L133.54872,3.9475256 C134.039334,3.06612628 134.284215,2.42278157 134.284215,2.05332765 C134.284215,1.65827645 134.062372,1.32636519 133.558959,1.14974403 C133.314078,1.06271331 132.980461,1.02773038 132.737287,1.00639932 L132.737287,0.639505119 L137.781655,0.639505119 L137.781655,1.00639932 C136.2407,1.22653584 135.382338,1.80930034 134.132338,4.1028157" id="Fill-7" fill="#101820"></path>
                <path d="M167.863737,7.73080205 C166.931997,8.19240614 165.414078,8.54735495 162.939676,8.54735495 C162.52244,8.54735495 162.106058,8.50213311 161.616297,8.4355802 L161.616297,9.64206485 C161.616297,11.230802 161.689676,12.7956485 161.984044,13.6104949 C162.179437,14.1403584 162.595819,14.4270478 163.109471,14.5797782 C163.331314,14.6463311 163.797184,14.6915529 164.017321,14.7137372 L164.017321,15.072099 L155.979778,15.072099 L155.979778,14.6915529 C156.176877,14.6685154 156.495137,14.6463311 156.740017,14.5797782 C157.229778,14.4270478 157.647867,14.1181741 157.843259,13.5883106 C158.136775,12.7734642 158.234898,11.230802 158.234898,9.64206485 L158.234898,5.94581911 C158.234898,4.3809727 158.136775,2.83831058 157.843259,2.02175768 C157.647867,1.51493174 157.229778,1.20520478 156.740017,1.05162116 C156.495137,0.986774744 156.176877,0.962883959 155.979778,0.943259386 L155.979778,0.584897611 L163.919198,0.584897611 C167.595819,0.584897611 169.798891,1.79820819 169.798891,4.39974403 C169.798891,5.74445392 169.015614,7.15742321 167.863737,7.73080205 M163.429437,0.95947099 C163.060836,0.95947099 162.620563,1.02517065 162.326195,1.15827645 C161.957594,1.33489761 161.812543,1.64291809 161.71442,2.01834471 C161.639334,2.39291809 161.616297,2.74616041 161.616297,3.58489761 L161.616297,7.84087031 C162.055717,7.95093857 162.472952,8.01749147 162.939676,8.01749147 C164.507082,8.01749147 165.045478,7.66424915 165.512201,7.00213311 C165.977218,6.36390785 166.14872,5.14974403 166.14872,4.42278157 C166.14872,2.28114334 165.414078,0.95947099 163.429437,0.95947099" id="Fill-9" fill="#101820"></path>
                <path d="M188.736519,15.0716724 L175.776621,15.0716724 L175.776621,14.7133106 C175.995904,14.693686 176.341468,14.6697952 176.560751,14.6032423 C177.074403,14.4488055 177.490785,14.1399317 177.662287,13.6331058 C177.981399,12.8165529 178.030887,11.2755973 178.030887,9.70904437 L178.030887,5.97098976 C178.030887,4.38481229 177.955802,2.84129693 177.662287,2.04607509 C177.467747,1.5162116 177.051365,1.20819113 176.536007,1.07679181 C176.314164,1.01109215 176.047952,0.966723549 175.801365,0.944539249 L175.801365,0.58447099 L183.6657,0.58447099 L183.6657,0.944539249 C183.443857,0.966723549 183.150341,1.01109215 182.930205,1.07679181 C182.4157,1.20819113 181.97372,1.5162116 181.777474,2.04607509 C181.483959,2.84129693 181.41058,4.38481229 181.41058,5.97098976 L181.41058,10.9274744 C181.41058,12.162116 181.483959,12.9351536 181.632423,13.3950512 C181.777474,13.8370307 181.985666,14.0802048 182.303925,14.278157 C182.722014,14.5435154 183.285154,14.6313993 183.750171,14.6313993 L184.321843,14.6313993 C185.448123,14.6313993 186.134983,14.1680887 186.696416,13.5733788 C187.629863,12.5588737 188.351706,11.0153584 188.745051,10.112628 L189.105119,10.112628 L188.736519,15.0716724 Z" id="Fill-11" fill="#101820"></path>
                <path d="M228.057338,0.804863481 L219.506997,14.6751706 L221.042833,14.6751706 C223.114505,14.6751706 224.387543,14.2698805 225.354266,13.5070819 C226.704096,12.443942 227.272355,11.5386519 227.919113,10.3987201 L228.279181,10.3987201 L227.298805,15.1837031 L215.243345,15.1837031 L215.243345,15.0719283 L224.112799,1.246843 L222.086348,1.246843 C220.336348,1.246843 218.949829,1.73148464 218.141809,2.25964164 C217.285154,2.8133959 216.451536,4.01988055 215.826962,5.08472696 L215.465188,5.08472696 L216.396928,0.694795222 L228.057338,0.694795222 L228.057338,0.804863481 Z" id="Fill-13" fill="#101820"></path>
                <path d="M117.862799,14.9616894 C117.561604,14.896843 117.214334,14.7799488 117.00785,14.64343 C116.467747,14.2236348 116.052218,13.2082765 115.709215,11.3354096 C115.4157,9.92414676 114.802218,9.10759386 114.042833,8.62209898 C113.455802,8.2475256 112.547952,8.07090444 111.887543,7.98387372 L111.887543,7.91732082 C112.819283,7.85076792 113.553925,7.6306314 114.042833,7.36612628 C115.292833,6.77056314 116.100853,5.75776451 116.100853,4.29957338 C116.100853,1.78848123 113.626451,0.640017065 110.417406,0.640017065 L102.553072,0.640017065 L102.553072,1.00691126 C102.750171,1.02824232 103.019795,1.07175768 103.264676,1.13831058 C103.803072,1.2697099 104.19471,1.5581058 104.414846,2.175 C104.611092,2.81493174 104.685324,3.93779863 104.685324,5.10930034 L104.685324,10.6451365 C104.685324,11.837116 104.635836,12.9599829 104.414846,13.5999147 C104.219454,14.2381399 103.803072,14.5248294 103.287713,14.6587884 C103.043686,14.7236348 102.750171,14.7483788 102.553072,14.7680034 L102.553072,15.1263652 L110.368771,15.1263652 L110.368771,14.7680034 C110.172526,14.7483788 109.780034,14.7236348 109.51041,14.6587884 C108.996758,14.5248294 108.604266,14.2381399 108.384983,13.5999147 C108.163993,12.9599829 108.089761,11.837116 108.089761,10.6451365 L108.089761,8.13745734 L108.922526,8.13745734 C110.050512,8.13745734 110.735666,8.20401024 111.251024,8.82090444 C111.75785,9.4190273 111.983959,10.2603242 112.130717,11.3268771 C112.224573,12.2116894 112.32099,13.868686 113.172526,14.9463311 C113.220307,15.0120307 113.263823,15.0751706 113.308191,15.1263652 C113.333788,15.1553754 113.365358,15.1767065 113.391809,15.2014505 C113.405461,15.2151024 113.414846,15.2330205 113.430205,15.2466724 C113.455802,15.2714164 113.47884,15.2833618 113.50529,15.3046928 C114.870478,16.4301195 117.643515,15.6630546 118.207509,15.1263652 L118.207509,15.0162969 L117.862799,14.9616894 Z M109.241638,7.59564846 L108.089761,7.59564846 L108.089761,3.15452218 C108.089761,2.44803754 108.114505,1.85332765 108.334642,1.50008532 C108.580375,1.1246587 109.045392,0.993259386 109.632423,0.993259386 L109.780034,0.993259386 C111.740785,0.993259386 112.329522,2.31663823 112.329522,4.29957338 C112.329522,5.22790102 112.132423,6.18438567 111.715188,6.77909556 C111.299659,7.3524744 110.687031,7.59564846 109.241638,7.59564846 L109.241638,7.59564846 Z" id="Fill-15" fill="#101820"></path>
                <g id="Group-19" transform="translate(0.000000, 0.172782)">
                    <mask id="mask-2" fill="white">
                        <use xlink:href="#path-1"></use>
                    </mask>
                    <g id="Clip-18"></g>
                    <path d="M13.5726962,10.1476962 C12.6870307,13.2688567 10.3098976,14.4258532 8.69726962,14.4258532 C7.64351536,14.4258532 6.61450512,14.1604949 6.02662116,13.7424061 C4.60682594,12.6826792 3.6503413,11.0726109 3.6503413,7.69974403 C3.6503413,4.74496587 4.21433447,2.89343003 5.09573379,1.85674061 C5.8559727,0.930119454 6.95921502,0.555546075 7.96177474,0.555546075 C10.902901,0.555546075 12.4464164,2.62807167 13.3030717,5.86953925 L13.6588737,5.86953925 L13.6588737,0.709982935 L13.3764505,0.709982935 L13.3610922,0.735580205 C13.2774744,0.884044369 12.8056314,1.61356655 11.9549488,1.1306314 C11.9464164,1.12551195 11.9404437,1.12380546 11.9319113,1.11868601 C10.9856655,0.564078498 9.4890785,0.180119454 7.93788396,0.180119454 C4.06672355,0.180119454 0.000170648464,2.29872014 0.000170648464,7.69974403 C0.000170648464,13.1024744 3.91996587,15.2620307 7.76638225,15.2620307 L7.97457338,15.2620307 C11.0641638,15.2620307 13.3824232,13.1604949 14.0129693,10.256058 L13.5726962,10.1476962 Z" id="Fill-17" fill="#101820" mask="url(#mask-2)"></path>
                </g>
                <path d="M74.7770478,0.671501706 L61.6695392,0.671501706 L61.0330205,5.3447099 L61.3913823,5.3447099 C61.7591297,4.5725256 62.3205631,3.20648464 63.2505973,2.32337884 C64.084215,1.42150171 65.0569113,1.11945392 65.8478669,1.11945392 L66.5458191,1.11945392 L66.5458191,10.6988055 C66.5458191,11.8899317 66.4724403,13.0136519 66.2505973,13.6313993 C66.0304608,14.2704778 65.6149317,14.5784983 65.1004266,14.7116041 C64.8299488,14.778157 64.5611775,14.8003413 64.3649317,14.8003413 L64.3649317,15.1587031 L72.0825085,15.1587031 L72.0825085,14.8003413 C71.8862628,14.8003413 71.6174915,14.778157 71.3470137,14.7116041 C70.8316553,14.5784983 70.4169795,14.2704778 70.196843,13.6313993 C69.975,13.0136519 69.9016212,11.8899317 69.9016212,10.6988055 L69.9016212,1.11945392 L70.5995734,1.11945392 C71.390529,1.11945392 72.362372,1.42150171 73.1959898,2.32337884 C74.1260239,3.20648464 74.6883106,4.5725256 75.0552048,5.3447099 L75.4144198,5.3447099 L74.7770478,0.671501706 Z" id="Fill-20" fill="#101820"></path>
                <path d="M32.8777304,15.1266212 L20.0637372,15.1266212 L20.0637372,14.7682594 C20.2599829,14.7682594 20.5543515,14.7 20.8000853,14.6351536 C21.3145904,14.5020478 21.7309727,14.2383959 21.9519625,13.5984642 C22.1473549,12.9585324 22.2207338,11.8356655 22.2207338,10.643686 L22.2207338,5.12235495 C22.2207338,3.93293515 22.1473549,2.78617747 21.9519625,2.16757679 C21.7309727,1.52764505 21.3145904,1.26484642 20.8000853,1.13174061 C20.5543515,1.06604096 20.2599829,1.02337884 20.0637372,0.99778157 L20.0637372,0.639419795 L32.3145904,0.639419795 L32.8273891,5.18293515 L32.475,5.18293515 C32.0355802,4.05750853 31.7360922,2.94829352 30.8290956,2.06433447 C30.2906997,1.53617747 29.2761945,1.07286689 28.2958191,1.07286689 L27.781314,1.07286689 C27.19343,1.07286689 26.7523038,1.1616041 26.4101536,1.45 C25.6260239,2.02167235 25.5526451,3.22133106 25.5526451,4.12406143 L25.5526451,7.28447099 L26.4570819,7.28447099 C27.8538396,7.28447099 28.2736348,7.21877133 28.7633959,6.79897611 C29.3999147,6.27081911 29.6533276,5.27081911 29.7514505,4.54300341 L30.1098123,4.54300341 L30.1098123,10.6522184 L29.749744,10.6522184 C29.6524744,9.9440273 29.4724403,9.00375427 28.8598123,8.51911263 C28.418686,8.18720137 27.8521331,7.92440273 26.4553754,7.92440273 L25.5526451,7.92440273 L25.5526451,11.4883959 C25.5526451,12.393686 25.5287543,13.6616041 26.3120307,14.2349829 C26.7275597,14.5668942 27.3649317,14.6982935 27.9528157,14.6982935 L28.4374573,14.6982935 C29.5151024,14.6982935 30.3478669,14.3015358 30.9357509,13.640273 C31.9161263,12.6035836 32.4690273,11.2238908 32.8615188,10.1223549 L33.2198805,10.1223549 L32.8777304,15.1266212 Z" id="Fill-22" fill="#101820"></path>
                <path d="M209.399317,14.65 C208.986348,14.5416382 208.598123,14.3863481 208.255973,13.8854949 C207.925768,13.3215017 207.55802,12.6354949 207.117747,11.5416382 C207.046075,11.3667235 206.974403,11.1866894 206.901024,10.9989761 C206.789249,10.7156997 206.674915,10.4221843 206.554608,10.1073379 L205.005119,5.88293515 L204.87628,5.53225256 L204.12628,3.48788396 L203.103242,0.696075085 L202.178328,0.696075085 L200.896758,0.696075085 L200.106655,2.71484642 L198.895051,5.80614334 L196.476109,11.9887372 C196.133959,12.8419795 195.867747,13.3317406 195.575939,13.7250853 C195.282423,14.1619454 194.967577,14.343686 194.675768,14.5168942 C194.336177,14.6935154 193.994027,14.7583618 193.631399,14.8035836 L193.631399,15.1832765 L198.543515,15.1832765 L198.543515,14.8035836 C198.300341,14.7796928 197.912116,14.7148464 197.595563,14.6064846 C197.156997,14.4298635 196.794369,14.0365188 196.794369,13.424744 C196.794369,13.0305461 196.890785,12.7771331 197.156997,12.0322526 L197.767065,10.4102389 L203.021331,10.4102389 L203.540102,11.8351536 C203.783276,12.5348123 203.976962,12.8547782 203.976962,13.4682594 C203.976962,14.1013652 203.638225,14.4085324 203.174915,14.6064846 C202.956485,14.6935154 202.518771,14.7796928 202.274744,14.8035836 L202.274744,15.1832765 L204.75,15.1832765 L205.674915,15.1832765 L210.226109,15.1832765 L210.226109,14.8232082 C209.982935,14.8035836 209.691126,14.7370307 209.399317,14.65 L209.399317,14.65 Z M200.473549,3.39658703 L202.826792,9.87354949 L197.983788,9.87354949 L200.473549,3.39658703 Z" id="Fill-24" fill="#101820"></path>
            </g>
        </g>
    </g>
</svg>