<?xml version="1.0" encoding="UTF-8"?>
<svg width="686px" height="44px" viewBox="0 0 686 44" version="1.1" xmlns="http://www.w3.org/2000/svg" xmlns:xlink="http://www.w3.org/1999/xlink">
    <!-- Generator: Sketch 56.3 (81716) - https://sketch.com -->
    <title>logo-white</title>
    <desc>Created with Sketch.</desc>
    <defs>
        <polygon id="path-1" points="0.000470754384 0.50181658 38.656467 0.50181658 38.656467 42.3398271 0.000470754384 42.3398271"></polygon>
    </defs>
    <g id="Page-1" stroke="none" stroke-width="1" fill="none" fill-rule="evenodd" opacity="0.9">
        <g id="1680x950---Landing-Intro" transform="translate(-455.000000, -450.000000)">
            <g id="logo-white" transform="translate(454.500000, 450.000000)">
                <path d="M684.257982,39.5275929 C683.13813,39.2283998 682.085377,38.7996348 681.157566,37.4167501 C680.262147,35.8595324 679.264924,33.9654279 678.071032,30.9452265 C677.881305,30.4622769 677.68695,29.9651923 677.483341,29.446905 C677.180241,28.6647624 676.870199,27.8543495 676.543961,26.9850403 L672.34683,15.3212203 L671.992827,14.3529654 L669.959047,8.7083456 L667.184868,1 L664.681398,1 L661.201527,1 L659.059,6.57394428 L655.778112,15.1091937 L649.214021,32.1796926 C648.28621,34.5355439 647.56895,35.8878026 646.773022,36.9738501 C645.981721,38.1800459 645.123323,38.6818423 644.332022,39.1600801 C643.411152,39.6477413 642.487969,39.826786 641.5,39.9516462 L641.5,41 L654.820222,41 L654.820222,39.9516462 C654.165433,39.8856823 653.108052,39.7066376 652.249653,39.4074445 C651.065016,38.9197833 650.077048,37.8337358 650.077048,36.1445904 C650.077048,35.0561871 650.338501,34.3564992 651.065016,32.299841 L652.714715,27.8213676 L666.962749,27.8213676 L668.374132,31.7556393 C669.033549,33.6874374 669.556455,34.5708817 669.556455,36.2647388 C669.556455,38.0127805 668.635585,38.860887 667.379223,39.4074445 C666.786904,39.6477413 665.602267,39.8856823 664.938223,39.9516462 L664.938223,41 L671.650393,41 L674.158491,41 L686.5,41 L686.5,40.0058307 C685.840583,39.9516462 685.05391,39.7678897 684.257982,39.5275929 L684.257982,39.5275929 Z M660.05391,8.45626951 L666.435215,26.3395371 L653.302406,26.3395371 L660.05391,8.45626951 Z" id="Fill-1" fill="#FFFFFF"></path>
                <path d="M151.181835,2.36345065 C150.022753,2.66462383 148.863671,3.23428471 148.250877,4.56038055 C147.635709,6.01021421 147.410067,7.51141073 147.410067,11.433666 L147.410067,41 L144.904265,41 L118.993549,8.35422868 L118.993549,30.2558221 C118.993549,34.1827467 119.264318,35.455145 119.948367,36.9003093 C120.492281,38.2264052 121.720243,38.9898442 122.948205,39.293352 C123.627503,39.4684527 124.242672,39.5898558 125.199865,39.6552268 L125.199865,40.6357906 L110.858596,40.6357906 L110.858596,39.6552268 C111.815789,39.5898558 112.499838,39.4684527 113.179136,39.293352 C114.407099,38.9898442 115.566181,38.2264052 116.11247,36.9003093 C116.794143,35.455145 117.205047,34.1827467 117.205047,30.2558221 L117.205047,13.7870192 C117.205047,9.67798984 116.744265,7.14253196 115.908205,5.66001284 C115.157652,4.32924765 113.452281,3.06618806 111.680405,2.40080546 C110.998731,2.15799918 110.110418,2.03426137 109.5,1.98056382 L109.5,1 L125.33525,1 L145.590688,27.4238604 L145.628691,27.4238604 L145.628691,11.433666 C145.628691,7.51141073 145.179784,6.01021421 144.63587,4.56038055 C143.954197,3.23428471 142.726235,2.66462383 141.567152,2.36345065 C140.885479,2.18601529 140.27031,2.06227748 139.315493,1.99924123 L139.315493,1 L153.5,1 L153.5,1.99924123 C152.616437,2.06227748 151.930013,2.18601529 151.181835,2.36345065" id="Fill-3" fill="#FFFFFF"></path>
                <path d="M264.221128,3.3810128 C263.150502,3.68606529 261.879279,4.5444688 261.275156,5.89001038 C260.60339,7.35851886 260.286168,9.24558773 260.286168,13.2230938 L260.286168,28.7050986 C260.286168,32.1268889 259.68671,35.1206598 258.277868,37.5043258 C256.631109,40.2663514 253.020369,42.9125043 246.573285,43 L245.670599,43 C238.705696,43 233.280255,41.2311685 230.803119,35.9743338 C229.73016,33.8957204 229.328967,29.4996539 229.328967,27.2365901 L229.328967,14.3818203 C229.328967,11.0853616 229.19368,7.96152959 228.59189,6.25418157 C228.055411,4.4806206 226.851831,3.74518399 225.510632,3.3810128 C224.775888,3.20129196 223.971169,3.07596032 223.5,3.01211212 L223.5,2 L244.464687,2 L244.464687,3.01211212 C243.993518,3.07596032 243.258774,3.20129196 242.521698,3.3810128 C241.115189,3.74518399 239.976919,4.4806206 239.375129,6.25418157 C238.838649,7.96152959 238.640385,11.0853616 238.640385,14.3818203 L238.640385,29.8638251 C238.640385,31.8171069 238.838649,34.021052 239.503417,35.794613 C240.914592,39.4576076 243.594657,41.0514477 247.814185,41.0514477 C252.101356,41.0514477 255.583808,39.3370054 257.123271,36.3408698 C258.058611,34.3852232 258.52978,31.9424386 258.52978,28.9510324 L258.52978,13.2230938 C258.52978,9.24558773 258.259208,7.35851886 257.587442,5.89001038 C257.05796,4.60122275 255.784405,3.68606529 254.646135,3.3810128 C253.972037,3.20129196 253.302604,3.07596032 252.364931,3.01211212 L252.364931,2 L266.5,2 L266.5,3.01211212 C265.557662,3.07596032 264.890561,3.20129196 264.221128,3.3810128" id="Fill-5" fill="#FFFFFF"></path>
                <path d="M370.353453,10.5624006 L363.478379,23.3499617 L363.478379,28.6270687 C363.478379,31.9158372 363.611231,35.0184934 364.292096,36.7853819 C364.768938,38.5475587 365.993072,39.2825844 367.359546,39.6477413 C368.175635,39.8314977 368.920553,39.9516462 369.404513,40.0105424 L369.404513,41 L348.079447,41 L348.079447,40.0105424 C348.62746,39.9516462 349.372378,39.8314977 350.193212,39.6477413 C351.554941,39.2825844 352.783819,38.5475587 353.32946,36.7853819 C353.936782,35.0184934 354.076751,31.9158372 354.076751,28.6270687 L354.076751,24.86713 L344.333504,7.82490135 C342.020462,3.67860298 340.181889,2.44178102 336.5,2.01301608 L336.5,1 L358.361217,1 L358.361217,2.01301608 C357.685097,2.07191236 356.4064,2.26273632 355.725535,2.50067731 C352.930905,3.47599976 353.478918,5.50674362 354.975872,8.42799929 L362.263735,21.7032216 L362.472502,21.7032216 L368.730765,10.1336357 C370.094867,7.70004123 370.775732,5.92372931 370.775732,4.90364568 C370.775732,3.81288651 370.158921,2.89646033 368.759233,2.4087991 C368.078368,2.16850227 367.150779,2.07191236 366.474659,2.01301608 L366.474659,1 L380.5,1 L380.5,2.01301608 C376.215534,2.62082573 373.828948,4.2298722 370.353453,10.5624006" id="Fill-7" fill="#FFFFFF"></path>
                <path d="M463.178686,20.730255 C460.616572,22.0047706 456.442578,22.9848048 449.638429,22.9848048 C448.491109,22.9848048 447.346135,22.8599446 445.999383,22.6761882 L445.999383,26.007362 C445.999383,30.3939572 446.201161,34.7145886 447.01062,36.9644266 C447.547913,38.4274103 448.692887,39.2189764 450.105335,39.6406738 C450.715362,39.8244302 451.996419,39.9492903 452.601754,40.0105424 L452.601754,41 L430.5,41 L430.5,39.9492903 C431.041986,39.8856823 431.91714,39.8244302 432.590516,39.6406738 C433.937268,39.2189764 435.086935,38.3661582 435.624228,36.9031745 C436.431341,34.6533365 436.701161,30.3939572 436.701161,26.007362 L436.701161,15.801814 C436.701161,11.4811826 436.431341,7.2218034 435.624228,4.96725367 C435.086935,3.56787797 433.937268,2.71270393 432.590516,2.28865069 C431.91714,2.10960598 431.041986,2.04364215 430.5,1.98945757 L430.5,1 L452.331934,1 C462.441961,1 468.5,4.35002061 468.5,11.5330114 C468.5,15.2458331 466.346135,19.1471229 463.178686,20.730255 M450.985182,2.03421874 C449.971598,2.03421874 448.760929,2.21561929 447.951469,2.5831321 C446.937886,3.07079333 446.539022,3.92125567 446.269202,4.95783026 C446.062732,5.992049 445.999383,6.96737146 445.999383,9.28317333 L445.999383,21.0341598 C447.207706,21.3380647 448.355026,21.5218211 449.638429,21.5218211 C453.948506,21.5218211 455.428995,20.5464986 456.712398,18.718358 C457.991109,16.9561812 458.462707,13.6038047 458.462707,11.5966194 C458.462707,5.68343248 456.442578,2.03421874 450.985182,2.03421874" id="Fill-9" fill="#FFFFFF"></path>
                <path d="M519.476762,41 L483.5,41 L483.5,40.0105424 C484.108732,39.9563579 485.068017,39.890394 485.676749,39.7066376 C487.10265,39.2802285 488.25853,38.4274103 488.73462,37.0280346 C489.620479,34.7734849 489.757858,30.5188174 489.757858,26.1934743 L489.757858,15.8724895 C489.757858,11.4929619 489.549421,7.23122681 488.73462,5.03557336 C488.194578,3.57258967 487.038698,2.72212733 485.60806,2.35932623 C484.992222,2.17792567 484.253217,2.0554214 483.56869,1.99416927 L483.56869,1 L505.400134,1 L505.400134,1.99416927 C504.784297,2.0554214 503.969496,2.17792567 503.358396,2.35932623 C501.930126,2.72212733 500.703188,3.57258967 500.158409,5.03557336 C499.343608,7.23122681 499.139908,11.4929619 499.139908,15.8724895 L499.139908,29.55763 C499.139908,32.9665469 499.343608,35.1009482 499.755745,36.3707521 C500.158409,37.5910831 500.736349,38.2625007 501.619839,38.8090582 C502.780456,39.541728 504.343736,39.7843807 505.634626,39.7843807 L507.221593,39.7843807 C510.348153,39.7843807 512.254881,38.5051534 513.813424,36.863125 C516.40468,34.0620178 518.408521,29.8002827 519.500448,27.307792 L520.5,27.307792 L519.476762,41 Z" id="Fill-11" fill="#FFFFFF"></path>
                <path d="M628.887354,1.30386903 L605.274578,39.596078 L609.515971,39.596078 C615.237138,39.596078 618.752782,38.4771804 621.422503,36.3712973 C625.150216,33.4362523 626.719531,30.9369884 628.505629,27.7899417 L629.5,27.7899417 L626.792578,41 L593.5,41 L593.5,40.6914198 L617.994044,2.5240563 L612.397761,2.5240563 C607.56493,2.5240563 603.735895,3.86202226 601.504451,5.32012249 C599.138696,6.84888994 596.836562,10.1796714 595.111729,13.1194276 L594.112646,13.1194276 L596.685757,1 L628.887354,1 L628.887354,1.30386903 Z" id="Fill-13" fill="#FFFFFF"></path>
                <path d="M324.553142,41.5184432 C323.725813,41.3440374 322.771925,41.029648 322.204747,40.6624778 C320.721181,39.5334296 319.579795,36.8026017 318.637625,31.7654862 C317.831389,27.9698648 316.146264,25.7737284 314.060364,24.4679795 C312.447893,23.4605564 309.954189,22.9855301 308.140159,22.7514591 L308.140159,22.5724637 C310.699488,22.3934682 312.71742,21.8014063 314.060364,21.0900142 C317.493895,19.4882344 319.713386,16.7642909 319.713386,12.8424548 C319.713386,6.08881886 312.916635,3 304.101951,3 L282.5,3 L282.5,3.98676977 C283.041396,4.04414011 283.782008,4.16117559 284.454652,4.34017104 C285.933531,4.6935723 287.009293,5.46921924 287.61397,7.12836934 C288.153022,8.84947941 288.356925,11.8694539 288.356925,15.0202327 L288.356925,29.9089822 C288.356925,33.1148365 288.22099,36.134811 287.61397,37.855921 C287.077261,39.5724415 285.933531,40.3434988 284.517932,40.7037845 C283.847632,40.8781903 283.041396,40.9447399 282.5,40.9975206 L282.5,41.9613422 L303.96836,41.9613422 L303.96836,40.9975206 C303.429307,40.9447399 302.351202,40.8781903 301.61059,40.7037845 C300.199678,40.3434988 299.121573,39.5724415 298.51924,37.855921 C297.91222,36.134811 297.708317,33.1148365 297.708317,29.9089822 L297.708317,23.1645255 L299.995776,23.1645255 C303.094157,23.1645255 304.976154,23.343521 306.391753,25.0026711 C307.783916,26.6113353 308.404998,28.8740213 308.808116,31.7425381 C309.065924,34.1222596 309.330763,38.5787873 311.669783,41.4771366 C311.80103,41.6538372 311.920559,41.8236534 312.042432,41.9613422 C312.112743,42.0393659 312.19946,42.0967362 312.272115,42.1632858 C312.309615,42.2000028 312.335395,42.2481939 312.377582,42.2849109 C312.447893,42.3514605 312.511173,42.3835879 312.583828,42.4409582 C316.33376,45.4678171 323.950809,43.4047799 325.5,41.9613422 L325.5,41.6653113 L324.553142,41.5184432 Z M300.872322,21.707319 L297.708317,21.707319 L297.708317,9.76281515 C297.708317,7.86270964 297.776285,6.26322468 298.380961,5.31317193 C299.055949,4.30345402 300.33327,3.95005276 301.94574,3.95005276 L302.351202,3.95005276 C307.737041,3.95005276 309.3542,7.50930837 309.3542,12.8424548 C309.3542,15.3392118 308.812803,17.9116976 307.66673,19.5111826 C306.525345,21.0532972 304.842563,21.707319 300.872322,21.707319 L300.872322,21.707319 Z" id="Fill-15" fill="#FFFFFF"></path>
                <g id="Group-19" transform="translate(0.500000, 0.000000)">
                    <mask id="mask-2" fill="white">
                        <use xlink:href="#path-1"></use>
                    </mask>
                    <g id="Clip-18"></g>
                    <path d="M37.4419207,28.1516735 C34.9987054,36.8103765 28.4410969,40.020109 23.9924679,40.020109 C21.0855596,40.020109 18.2469107,39.2839535 16.6251618,38.1240945 C12.7084853,35.1842068 10.069907,30.7175658 10.069907,21.3605802 C10.069907,13.1634537 11.6257503,8.02693493 14.0571967,5.15095783 C16.1544074,2.58033139 19.1978345,1.54119234 21.9635165,1.54119234 C30.0769683,1.54119234 34.3349417,7.29077948 36.6981288,16.2832379 L37.6796516,16.2832379 L37.6796516,1.96963008 L36.9005531,1.96963008 L36.8581852,2.04064186 C36.6275156,2.45251018 35.3258797,4.47634592 32.9791691,3.13659033 C32.9556314,3.12238798 32.939155,3.11765386 32.9156173,3.1034515 C30.3052842,1.56486293 26.1767683,0.499686227 21.8976109,0.499686227 C11.2185477,0.499686227 0.000470754384,6.37709457 0.000470754384,21.3605802 C0.000470754384,36.3488 10.813699,42.3398271 21.4245028,42.3398271 L21.9988231,42.3398271 C30.5218312,42.3398271 36.9170295,36.50976 38.656467,28.45229 L37.4419207,28.1516735 Z" id="Fill-17" fill="#FFFFFF" mask="url(#mask-2)"></path>
                </g>
                <path d="M206.727232,1 L170.270395,1 L168.5,13.9029978 L169.496737,13.9029978 C170.519579,11.7709524 172.081133,7.99923435 174.667903,5.56092821 C176.986503,3.07079333 179.691931,2.23682196 181.891872,2.23682196 L183.833136,2.23682196 L183.833136,28.685965 C183.833136,31.9747335 183.629042,35.0773897 183.012014,36.7830261 C182.399733,38.5475587 181.243993,39.3980211 179.812964,39.7655339 C179.060664,39.9492903 178.313112,40.0105424 177.76728,40.0105424 L177.76728,41 L199.23272,41 L199.23272,40.0105424 C198.686888,40.0105424 197.939336,39.9492903 197.187036,39.7655339 C195.753634,39.3980211 194.600267,38.5475587 193.987986,36.7830261 C193.370958,35.0773897 193.166864,31.9747335 193.166864,28.685965 L193.166864,2.23682196 L195.108128,2.23682196 C197.308069,2.23682196 200.011124,3.07079333 202.329724,5.56092821 C204.916494,7.99923435 206.480421,11.7709524 207.50089,13.9029978 L208.5,13.9029978 L206.727232,1 Z" id="Fill-20" fill="#FFFFFF"></path>
                <path d="M90.5637525,41 L55.5,41 L55.5,40.0105424 C56.0369998,40.0105424 56.8424995,39.8220743 57.5149167,39.6430296 C58.9227901,39.2755168 60.0621636,38.5475587 60.666872,36.7806702 C61.2015371,35.0137817 61.4023283,31.9134814 61.4023283,28.622357 L61.4023283,13.377643 C61.4023283,10.0935862 61.2015371,6.92732199 60.666872,5.21932976 C60.0621636,3.45244125 58.9227901,2.72683904 57.5149167,2.35932623 C56.8424995,2.17792567 56.0369998,2.06013311 55.5,1.98945757 L55.5,1 L89.0227965,1 L90.4260004,13.5449084 L89.4617355,13.5449084 C88.2593229,10.4375405 87.4398145,7.37493374 84.9579415,4.93427175 C83.4846942,3.47599976 80.7086387,2.19677248 78.0259744,2.19677248 L76.618101,2.19677248 C75.0094364,2.19677248 73.8023542,2.44178102 72.8661068,3.23805878 C70.7204423,4.81647918 70.5196511,8.12880617 70.5196511,10.6212969 L70.5196511,19.3473703 L72.9945197,19.3473703 C76.8165575,19.3473703 77.9652701,19.1659697 79.3054349,18.0068909 C81.047182,16.5486189 81.7406122,13.7875611 82.0091121,11.7780199 L82.9897205,11.7780199 L82.9897205,28.6459155 L82.0044426,28.6459155 C81.7382774,26.6905589 81.2456385,24.0944107 79.5692652,22.7562872 C78.362183,21.839861 76.8118879,21.1142588 72.9898502,21.1142588 L70.5196511,21.1142588 L70.5196511,30.9546499 C70.5196511,33.4542081 70.4542772,36.9550032 72.5976068,38.5381353 C73.7346456,39.4545615 75.4787275,39.8173626 77.0873922,39.8173626 L78.4135482,39.8173626 C81.3623776,39.8173626 83.6411246,38.7218917 85.2497892,36.896107 C87.9324535,34.0337476 89.445392,30.2243359 90.5193917,27.1829319 L91.5,27.1829319 L90.5637525,41 Z" id="Fill-22" fill="#FFFFFF"></path>
                <path d="M576.257982,39.5275929 C575.13813,39.2283998 574.085377,38.7996348 573.157566,37.4167501 C572.262147,35.8595324 571.264924,33.9654279 570.071032,30.9452265 C569.876677,30.4622769 569.682323,29.9651923 569.483341,29.446905 C569.180241,28.6647624 568.870199,27.8543495 568.543961,26.9850403 L564.342203,15.3212203 L563.992827,14.3529654 L561.959047,8.7083456 L559.184868,1 L556.67677,1 L553.201527,1 L551.059,6.57394428 L547.773484,15.1091937 L541.214021,32.1796926 C540.28621,34.5355439 539.564322,35.8878026 538.773022,36.9738501 C537.977094,38.1800459 537.123323,38.6818423 536.332022,39.1600801 C535.411152,39.6477413 534.483341,39.826786 533.5,39.9516462 L533.5,41 L546.820222,41 L546.820222,39.9516462 C546.160805,39.8856823 545.108052,39.7066376 544.249653,39.4074445 C543.060389,38.9197833 542.077048,37.8337358 542.077048,36.1445904 C542.077048,35.0561871 542.338501,34.3564992 543.060389,32.299841 L544.714715,27.8213676 L558.962749,27.8213676 L560.369505,31.7556393 C561.028922,33.6874374 561.554142,34.5708817 561.554142,36.2647388 C561.554142,38.0127805 560.635585,38.860887 559.379223,39.4074445 C558.786904,39.6477413 557.599954,39.8856823 556.938223,39.9516462 L556.938223,41 L563.650393,41 L566.158491,41 L578.5,41 L578.5,40.0058307 C577.840583,39.9516462 577.049283,39.7678897 576.257982,39.5275929 L576.257982,39.5275929 Z M552.05391,8.45626951 L558.435215,26.3395371 L545.302406,26.3395371 L552.05391,8.45626951 Z" id="Fill-24" fill="#FFFFFF"></path>
            </g>
        </g>
    </g>
</svg>