<svg xmlns="http://www.w3.org/2000/svg" width="24" height="24" viewBox="0 0 24 24"><defs><style>.a{fill:#fff;}</style></defs><path class="a" d="M744.248-1764.481a4.333,4.333,0,0,1,3.179,1.32,4.335,4.335,0,0,1,1.321,3.18v15a4.335,4.335,0,0,1-1.321,3.18,4.333,4.333,0,0,1-3.179,1.32H741.31v-9.3h3.109l.468-3.625H741.31v-2.312a2,2,0,0,1,.367-1.313,1.822,1.822,0,0,1,1.429-.437l1.907-.016v-3.235a21.013,21.013,0,0,0-2.782-.14,4.637,4.637,0,0,0-3.4,1.25,4.719,4.719,0,0,0-1.273,3.531v2.672h-3.126v3.625h3.126v9.3h-8.312a4.336,4.336,0,0,1-3.18-1.32,4.333,4.333,0,0,1-1.32-3.18v-15a4.334,4.334,0,0,1,1.32-3.18,4.336,4.336,0,0,1,3.18-1.32Z" transform="translate(-724.748 1764.481)"/></svg>