<svg xmlns="http://www.w3.org/2000/svg" width="24.001" height="24" viewBox="0 0 24.001 24"><defs><style>.a{fill:#fff;}</style></defs><path class="a" d="M1540.028-3538.734a1.5,1.5,0,0,1,1.5,1.5,1.5,1.5,0,0,1-1.5,1.5,1.5,1.5,0,0,1-1.5-1.5A1.5,1.5,0,0,1,1540.028-3538.734Zm-6.5,3.875a3.95,3.95,0,0,0-4,4,3.95,3.95,0,0,0,4,4,3.95,3.95,0,0,0,4-4A3.949,3.949,0,0,0,1533.527-3534.859Zm0-2.125a6.056,6.056,0,0,1,6.125,6.125,6.136,6.136,0,0,1-6.125,6.126,6.135,6.135,0,0,1-6.125-6.126A6.135,6.135,0,0,1,1533.527-3536.985Zm.951-3.75h-1.929a34.3,34.3,0,0,0-3.9.125,5.811,5.811,0,0,0-2.126.375,3.957,3.957,0,0,0-1.5,1,5.2,5.2,0,0,0-.875,1.375,5.805,5.805,0,0,0-.374,2.125,32.113,32.113,0,0,0-.125,3.926v.949c0,3.251.125,3.625.125,4.876a7.66,7.66,0,0,0,.374,2.375,5.166,5.166,0,0,0,.875,1.375,5.142,5.142,0,0,0,1.375.875,7.434,7.434,0,0,0,2.25.376,27.831,27.831,0,0,0,3.388.123h1.825c2.942-.009,3.333-.125,4.538-.125a6.062,6.062,0,0,0,2.251-.376,5.111,5.111,0,0,0,1.374-.875,5.145,5.145,0,0,0,.876-1.375,7.414,7.414,0,0,0,.375-2.25,30,30,0,0,0,.125-3.647v-1.566c-.008-2.94-.125-3.333-.125-4.538a6.052,6.052,0,0,0-.375-2.25,2.674,2.674,0,0,0-.876-1.5,5.134,5.134,0,0,0-1.374-.875,7.436,7.436,0,0,0-2.251-.375A32.137,32.137,0,0,0,1534.478-3540.735Zm.594-2.124a29.51,29.51,0,0,1,3.456.124,8.517,8.517,0,0,1,2.875.5,5.632,5.632,0,0,1,2.124,1.375,5.643,5.643,0,0,1,1.375,2.125,8.482,8.482,0,0,1,.5,2.876,32.926,32.926,0,0,1,.125,3.732v1.617c-.008,2.939-.125,3.447-.125,4.65a8.48,8.48,0,0,1-.5,2.875,5.647,5.647,0,0,1-1.375,2.125,5.651,5.651,0,0,1-2.124,1.376,8.53,8.53,0,0,1-2.875.5,33.4,33.4,0,0,1-3.733.123h-1.618c-2.938-.008-3.447-.123-4.65-.123a8.526,8.526,0,0,1-2.875-.5,5.664,5.664,0,0,1-2.125-1.376,5.658,5.658,0,0,1-1.375-2.125,8.5,8.5,0,0,1-.5-2.875,30.957,30.957,0,0,1-.125-3.466v-3.264a25.871,25.871,0,0,1,.124-3.146,8.722,8.722,0,0,1,.5-3,10.2,10.2,0,0,1,1.375-2.125,8.4,8.4,0,0,1,2.25-1.375,8.515,8.515,0,0,1,2.875-.5,26.444,26.444,0,0,1,3.145-.124Z" transform="translate(-1521.527 3542.859)"/></svg>