<svg xmlns="http://www.w3.org/2000/svg" width="24" height="24" viewBox="0 0 24 24"><defs><style>.a{fill:#fff;}</style></defs><path class="a" d="M41.5,12.093a6.321,6.321,0,0,1-1.641,1.7,3.847,3.847,0,0,1,.015.422A9.346,9.346,0,0,1,25.5,22.093a6.392,6.392,0,0,0,.781.047,6.607,6.607,0,0,0,4.078-1.406A3.3,3.3,0,0,1,27.3,18.452a4.06,4.06,0,0,0,.609.063,2.757,2.757,0,0,0,.8-.125A3.342,3.342,0,0,1,26,15.171V15.14a3.935,3.935,0,0,0,1.562.406,3.231,3.231,0,0,1-1.421-2.734,3.332,3.332,0,0,1,.453-1.656,9.322,9.322,0,0,0,6.781,3.437,3.007,3.007,0,0,1-.078-.75,3.283,3.283,0,0,1,5.672-2.25,6.536,6.536,0,0,0,2.093-.8,3.314,3.314,0,0,1-1.453,1.827A6.9,6.9,0,0,0,41.5,12.093Zm4-3.031a4.5,4.5,0,0,0-4.5-4.5H26a4.5,4.5,0,0,0-4.5,4.5v15a4.5,4.5,0,0,0,4.5,4.5H41a4.5,4.5,0,0,0,4.5-4.5Z" transform="translate(-21.503 -4.562)"/></svg>